<?xml version="1.0" encoding="UTF-8"?>
<svg version="1.1" xmlns="http://www.w3.org/2000/svg" width="500" height="500">
<path d="M0 0 C165 0 330 0 500 0 C500 165 500 330 500 500 C335 500 170 500 0 500 C0 335 0 170 0 0 Z " fill="#FEFEFE" transform="translate(0,0)"/>
<path d="M0 0 C2.39543532 0.01611279 4.7891846 0.00001457 7.18457031 -0.01904297 C23.91039005 -0.04198604 39.66545964 2.69084005 55.39550781 8.39111328 C56.5754834 8.8186792 56.5754834 8.8186792 57.77929688 9.25488281 C80.50960652 17.63551867 99.85901481 29.59559886 117.39550781 46.39111328 C118.12769531 47.07173828 118.85988281 47.75236328 119.61425781 48.45361328 C144.17027939 71.97205648 160.13764354 104.98345262 165.39550781 138.39111328 C165.56606689 139.45354248 165.73662598 140.51597168 165.91235352 141.6105957 C171.3563952 184.20836501 160.66979672 227.60607694 135.30175781 262.25048828 C133.39236598 264.69026674 131.42700286 267.05229972 129.39550781 269.39111328 C128.6878125 270.20837891 127.98011719 271.02564453 127.25097656 271.86767578 C125.00228172 274.41173334 122.71125407 276.90801057 120.39550781 279.39111328 C119.65945313 280.19291016 118.92339844 280.99470703 118.16503906 281.82080078 C91.60275943 309.67337541 50.83029227 327.85939382 12.46972656 328.81298828 C8.94477261 328.87011027 5.42088614 328.88800459 1.89550781 328.89111328 C0.63427597 328.89757874 0.63427597 328.89757874 -0.6524353 328.9041748 C-35.94334369 328.98166817 -69.65546241 316.76440507 -97.60449219 295.39111328 C-98.53777344 294.68341797 -99.47105469 293.97572266 -100.43261719 293.24658203 C-123.7783878 274.84984174 -140.75595086 250.9758465 -151.60449219 223.39111328 C-151.88663574 222.68051758 -152.1687793 221.96992188 -152.45947266 221.23779297 C-163.38751615 193.07087355 -166.39007363 156.82662694 -158.60449219 127.39111328 C-158.40581543 126.60994141 -158.20713867 125.82876953 -158.00244141 125.02392578 C-150.58043535 96.47005078 -136.50755732 70.98766003 -115.97705078 49.81494141 C-114.76813358 48.56086721 -113.58458647 47.28244135 -112.40527344 46.00048828 C-94.4124509 26.94523242 -69.29834594 13.6547533 -44.47949219 6.01611328 C-43.75415283 5.78964111 -43.02881348 5.56316895 -42.28149414 5.32983398 C-28.4205356 1.32288008 -14.37959784 -0.11440317 0 0 Z " fill="#0D5F90" transform="translate(247.6044921875,85.60888671875)"/>
<path d="M0 0 C1.09231934 0.00491455 2.18463867 0.0098291 3.31005859 0.01489258 C11.78832523 0.13737458 19.50082026 0.97882577 27.6875 3.3125 C28.91210938 3.6528125 30.13671875 3.993125 31.3984375 4.34375 C58.2308163 12.53177487 80.4647772 30.7825949 93.82470703 55.40869141 C105.73142851 78.24856335 110.7118208 107.11821609 103.10058594 132.25048828 C95.11826942 157.57430029 80.64141484 180.13961299 57.6875 194.3125 C56.96046875 194.8075 56.2334375 195.3025 55.484375 195.8125 C33.77843477 209.98780791 6.40955016 213.17370879 -18.875 209.625 C-39.95584247 205.18042999 -57.70121076 195.02214712 -73.3125 180.3125 C-74.32957031 179.40951172 -74.32957031 179.40951172 -75.3671875 178.48828125 C-92.81262965 162.33898641 -102.96931564 137.39934671 -104.53320312 114.01196289 C-105.62365092 82.99657809 -97.62190626 56.45833476 -76.375 33.0234375 C-56.52049597 11.87622588 -29.02104128 -0.15617313 0 0 Z " fill="#41C0C9" transform="translate(249.3125,144.6875)"/>
<path d="M0 0 C2.40081782 1.18288907 4.57528505 2.44344965 6.79620361 3.93347168 C7.59796524 4.46808014 8.39972687 5.0026886 9.2257843 5.55349731 C10.08103195 6.13054413 10.9362796 6.70759094 11.81744385 7.30212402 C12.71414291 7.90181 13.61084198 8.50149597 14.53471375 9.11935425 C17.40141294 11.03793292 20.26378089 12.96286318 23.1260376 14.88806152 C25.95709163 16.785411 28.78892765 18.68152525 31.62362671 20.57342529 C33.45690431 21.80635467 35.28163962 23.05208455 37.09744263 24.31060791 C42.55002726 28.07934641 42.55002726 28.07934641 48.49957275 30.94372559 C52.41085483 32.66555588 54.14297055 33.70378916 56.5635376 37.26306152 C58.77949573 45.25589978 58.7932562 53.52981828 58.78717041 61.76794434 C58.81337204 65.73797671 59.03050797 69.66737636 59.2588501 73.63024902 C59.73924433 91.41938438 59.73924433 91.41938438 54.37661743 97.90997314 C48.71605306 102.82181209 42.31141823 106.26504634 35.65319824 109.63720703 C31.22345648 111.96824476 27.23485233 114.79282216 23.17681885 117.70837402 C21.77637637 118.67173034 20.37342837 119.63145585 18.96783447 120.58728027 C16.87885681 122.013277 14.79485033 123.44478682 12.72149658 124.89343262 C10.6344889 126.34893588 8.53284522 127.78058158 6.42681885 129.20837402 C5.80607986 129.64972687 5.18534088 130.09107971 4.54579163 130.54580688 C2.77960205 131.7244873 2.77960205 131.7244873 -0.4364624 133.26306152 C-3.87618402 132.22267477 -6.69898328 130.58533213 -9.66912842 128.59265137 C-10.47089005 128.05804291 -11.27265167 127.52343445 -12.09870911 126.97262573 C-13.38158058 126.10705551 -13.38158058 126.10705551 -14.69036865 125.22399902 C-15.58706772 124.62431305 -16.48376678 124.02462708 -17.40763855 123.4067688 C-20.27433774 121.48819012 -23.13670569 119.56325987 -25.9989624 117.63806152 C-28.83001644 115.74071205 -31.66185245 113.8445978 -34.49655151 111.95269775 C-36.32982912 110.71976838 -38.15456442 109.4740385 -39.97036743 108.21551514 C-45.42295206 104.44677664 -45.42295206 104.44677664 -51.37249756 101.58239746 C-55.28377964 99.86056716 -57.01589536 98.82233389 -59.4364624 95.26306152 C-61.65242053 87.27022326 -61.666181 78.99630476 -61.66009521 70.75817871 C-61.68629685 66.78814634 -61.90343278 62.85874668 -62.1317749 58.89587402 C-62.61216913 41.10673866 -62.61216913 41.10673866 -57.24954224 34.6161499 C-51.58897786 29.70431096 -45.18434304 26.26107671 -38.52612305 22.88891602 C-34.09638129 20.55787829 -30.10777713 17.73330089 -26.04974365 14.81774902 C-24.64930118 13.8543927 -23.24635317 12.89466719 -21.84075928 11.93884277 C-19.75178161 10.51284605 -17.66777513 9.08133623 -15.59442139 7.63269043 C-13.50741371 6.17718717 -11.40577003 4.74554147 -9.29974365 3.31774902 C-8.67900467 2.87639618 -8.05826569 2.43504333 -7.41871643 1.98031616 C-3.0630646 -0.92646214 -3.0630646 -0.92646214 0 0 Z " fill="#FBFDFD" transform="translate(251.43646240234375,183.7369384765625)"/>
<path d="M0 0 C2.39543532 0.01611279 4.7891846 0.00001457 7.18457031 -0.01904297 C23.91039005 -0.04198604 39.66545964 2.69084005 55.39550781 8.39111328 C56.5754834 8.8186792 56.5754834 8.8186792 57.77929688 9.25488281 C80.50960652 17.63551867 99.85901481 29.59559886 117.39550781 46.39111328 C118.12769531 47.07173828 118.85988281 47.75236328 119.61425781 48.45361328 C144.17027939 71.97205648 160.13764354 104.98345262 165.39550781 138.39111328 C165.56606689 139.45354248 165.73662598 140.51597168 165.91235352 141.6105957 C171.3563952 184.20836501 160.66979672 227.60607694 135.30175781 262.25048828 C133.39236598 264.69026674 131.42700286 267.05229972 129.39550781 269.39111328 C128.6878125 270.20837891 127.98011719 271.02564453 127.25097656 271.86767578 C125.00228172 274.41173334 122.71125407 276.90801057 120.39550781 279.39111328 C119.65945313 280.19291016 118.92339844 280.99470703 118.16503906 281.82080078 C91.60275943 309.67337541 50.83029227 327.85939382 12.46972656 328.81298828 C8.94477261 328.87011027 5.42088614 328.88800459 1.89550781 328.89111328 C0.63427597 328.89757874 0.63427597 328.89757874 -0.6524353 328.9041748 C-35.94334369 328.98166817 -69.65546241 316.76440507 -97.60449219 295.39111328 C-98.53777344 294.68341797 -99.47105469 293.97572266 -100.43261719 293.24658203 C-123.7783878 274.84984174 -140.75595086 250.9758465 -151.60449219 223.39111328 C-151.88663574 222.68051758 -152.1687793 221.96992188 -152.45947266 221.23779297 C-163.38751615 193.07087355 -166.39007363 156.82662694 -158.60449219 127.39111328 C-158.40581543 126.60994141 -158.20713867 125.82876953 -158.00244141 125.02392578 C-150.58043535 96.47005078 -136.50755732 70.98766003 -115.97705078 49.81494141 C-114.76813358 48.56086721 -113.58458647 47.28244135 -112.40527344 46.00048828 C-94.4124509 26.94523242 -69.29834594 13.6547533 -44.47949219 6.01611328 C-43.75415283 5.78964111 -43.02881348 5.56316895 -42.28149414 5.32983398 C-28.4205356 1.32288008 -14.37959784 -0.11440317 0 0 Z M-33.60449219 9.39111328 C-34.44818359 9.58455322 -35.291875 9.77799316 -36.16113281 9.97729492 C-65.10740199 16.76995981 -89.30160814 32.12816292 -110.60449219 52.39111328 C-111.24902344 52.98279297 -111.89355469 53.57447266 -112.55761719 54.18408203 C-137.94692003 78.20900645 -154.84296911 116.66209006 -156.08625793 151.42961121 C-156.15287543 155.04838108 -156.15966748 158.66353229 -156.12597656 162.28271484 C-156.10443911 165.02286605 -156.12597804 167.76041294 -156.15136719 170.50048828 C-156.17061463 182.27590237 -154.75892901 193.0503375 -151.60449219 204.39111328 C-151.3221875 205.41301758 -151.03988281 206.43492187 -150.74902344 207.48779297 C-150.00677572 209.99980298 -149.20546335 212.47653395 -148.35449219 214.95361328 C-148.05929688 215.8229248 -147.76410156 216.69223633 -147.45996094 217.58789062 C-143.02428077 230.29407279 -137.36913717 242.3649863 -129.60449219 253.39111328 C-128.58935547 254.83357422 -128.58935547 254.83357422 -127.55371094 256.30517578 C-122.07872791 263.83206186 -116.06249312 270.70211589 -109.60449219 277.39111328 C-109.07025635 277.94871338 -108.53602051 278.50631348 -107.9855957 279.08081055 C-89.47743432 298.04376929 -64.17228665 311.74975753 -38.60449219 318.39111328 C-37.98944824 318.57303223 -37.3744043 318.75495117 -36.74072266 318.94238281 C-24.14225203 322.61060599 -11.49722273 322.79322149 1.52050781 322.82861328 C2.78889999 322.83773743 2.78889999 322.83773743 4.08291626 322.8470459 C49.21784585 323.05905215 87.53718199 303.81279318 119.23535156 272.59423828 C135.90950905 255.27416651 146.80393374 233.9790747 154.39550781 211.39111328 C154.79769531 210.23224609 155.19988281 209.07337891 155.61425781 207.87939453 C168.05583833 168.81094663 161.58724856 125.73789485 143.07910156 89.85986328 C122.76278164 51.46310636 88.31465152 24.8145297 47.21728516 11.69580078 C32.92099976 7.34670217 18.99799748 6.03804672 4.14892578 6.07543945 C1.53147692 6.07860004 -1.08483821 6.05505066 -3.70214844 6.02978516 C-14.08295604 5.99051196 -23.48953492 6.87556874 -33.60449219 9.39111328 Z " fill="#156494" transform="translate(247.6044921875,85.60888671875)"/>
<path d="M0 0 C0.83524704 -0.00570007 1.67049408 -0.01140015 2.53105164 -0.01727295 C4.29681145 -0.02668119 6.0625885 -0.03324023 7.82836914 -0.03710938 C10.46599175 -0.04670858 13.10279766 -0.07772675 15.74023438 -0.109375 C31.52119943 -0.21036888 46.36941373 1.66330087 61.32421875 6.890625 C62.33919434 7.23802734 63.35416992 7.58542969 64.39990234 7.94335938 C72.40747983 10.76105188 79.97772555 14.09780831 87.40087891 18.20751953 C89.22247864 19.21600225 91.05892115 20.19262213 92.8984375 21.16796875 C100.73115598 25.39599967 107.54760021 30.29909471 114.19921875 36.203125 C115.17632812 37.0590625 116.1534375 37.915 117.16015625 38.796875 C147.91376243 66.10314507 167.65712747 103.99823052 171.19921875 145.203125 C173.46720389 189.17262868 160.25225202 231.24740499 130.8359375 264.3203125 C105.05250685 292.51019668 67.98936184 314.22462661 29.08424377 316.31686401 C26.84620106 316.38278748 24.60999783 316.41937757 22.37109375 316.44140625 C21.54825897 316.4512001 20.72542419 316.46099396 19.87765503 316.47108459 C-13.77581895 316.78969244 -13.77581895 316.78969244 -28.80078125 312.203125 C-29.90558838 311.88964111 -29.90558838 311.88964111 -31.03271484 311.56982422 C-57.61916493 303.96800137 -79.67436157 289.93464431 -99.80078125 271.203125 C-100.81785156 270.26726562 -100.81785156 270.26726562 -101.85546875 269.3125 C-119.13206815 252.79912387 -131.78247337 230.37735888 -139.05078125 207.765625 C-139.27282227 207.07621826 -139.49486328 206.38681152 -139.72363281 205.67651367 C-140.47636815 203.1987131 -141.14480826 200.70843724 -141.80078125 198.203125 C-142.14496094 196.93114258 -142.48914063 195.65916016 -142.84375 194.34863281 C-145.65141131 183.37186189 -146.42704065 172.87990842 -146.32226562 161.57226562 C-146.30084551 158.83633304 -146.32218823 156.10304078 -146.34765625 153.3671875 C-146.37348776 137.41019728 -143.92933858 121.89338646 -138.73828125 106.765625 C-138.44719482 105.91129883 -138.1561084 105.05697266 -137.85620117 104.17675781 C-129.84484609 81.72773928 -116.46219684 62.07910067 -99.80078125 45.203125 C-99.2605835 44.64246338 -98.72038574 44.08180176 -98.16381836 43.50415039 C-73.62845617 18.35254798 -35.34631506 0.19200681 0 0 Z M-103.671875 56.296875 C-118.15845911 73.11125655 -129.62093993 92.85740338 -135.80078125 114.203125 C-136.04344727 115.00347168 -136.28611328 115.80381836 -136.53613281 116.62841797 C-144.5772016 144.1788783 -143.97097811 177.05592218 -134.80078125 204.203125 C-134.55521484 204.96753906 -134.30964844 205.73195313 -134.05664062 206.51953125 C-121.44883099 245.35019564 -93.08354409 277.31460723 -57.06933594 296.07568359 C-19.54684803 314.72385935 22.81646505 317.00099189 62.44921875 303.82421875 C80.83137025 297.39523369 97.46998393 287.9507568 112.19921875 275.203125 C113.18019531 274.3575 114.16117188 273.511875 115.171875 272.640625 C141.03763636 249.89781882 157.47236735 218.89236644 163.82470703 185.18261719 C164.1548499 183.43763781 164.51642359 181.69866777 164.8828125 179.9609375 C167.81692124 164.37980832 166.83981133 147.76256609 164.19921875 132.203125 C163.92464844 130.54216797 163.92464844 130.54216797 163.64453125 128.84765625 C156.14512813 89.36005835 132.65646919 55.13071131 100.38671875 31.578125 C35.1972495 -12.15921859 -50.92197436 -1.55663973 -103.671875 56.296875 Z " fill="#F1F6F9" transform="translate(237.80078125,91.796875)"/>
<path d="M0 0 C1.09231934 0.00491455 2.18463867 0.0098291 3.31005859 0.01489258 C11.78832523 0.13737458 19.50082026 0.97882577 27.6875 3.3125 C28.91210938 3.6528125 30.13671875 3.993125 31.3984375 4.34375 C58.2308163 12.53177487 80.4647772 30.7825949 93.82470703 55.40869141 C105.73142851 78.24856335 110.7118208 107.11821609 103.10058594 132.25048828 C95.11826942 157.57430029 80.64141484 180.13961299 57.6875 194.3125 C56.96046875 194.8075 56.2334375 195.3025 55.484375 195.8125 C33.77843477 209.98780791 6.40955016 213.17370879 -18.875 209.625 C-39.95584247 205.18042999 -57.70121076 195.02214712 -73.3125 180.3125 C-74.32957031 179.40951172 -74.32957031 179.40951172 -75.3671875 178.48828125 C-92.81262965 162.33898641 -102.96931564 137.39934671 -104.53320312 114.01196289 C-105.62365092 82.99657809 -97.62190626 56.45833476 -76.375 33.0234375 C-56.52049597 11.87622588 -29.02104128 -0.15617313 0 0 Z M-67.3125 31.3125 C-68.00472656 31.92351562 -68.69695312 32.53453125 -69.41015625 33.1640625 C-85.60439104 48.29585246 -98.35816019 72.5673422 -99.43530273 94.85327148 C-100.27413116 124.4111374 -93.69623694 150.86176207 -73.4375 173.125 C-54.39266177 193.23421442 -30.08583464 204.74718339 -2.34594727 205.6953125 C15.03460166 206.01524372 31.36445427 202.66490043 46.6875 194.3125 C47.67621094 193.80074219 48.66492188 193.28898438 49.68359375 192.76171875 C66.55688638 183.56807816 79.2888292 169.961574 88.6875 153.3125 C89.39712891 152.06339844 89.39712891 152.06339844 90.12109375 150.7890625 C101.72106302 129.034603 104.11161595 103.02859722 97.6875 79.3125 C93.44728275 65.41289368 87.19544555 52.38856183 77.6875 41.3125 C76.99785156 40.49007812 76.30820312 39.66765625 75.59765625 38.8203125 C63.87798723 25.26751424 49.35714367 16.5606354 32.6875 10.3125 C31.92050781 10.01601562 31.15351563 9.71953125 30.36328125 9.4140625 C-2.88676115 -2.64430117 -41.76898608 8.07587157 -67.3125 31.3125 Z " fill="#F6FAFB" transform="translate(249.3125,144.6875)"/>
<path d="M0 0 C6.6 0 13.2 0 20 0 C20 6.93 20 13.86 20 21 C26.93 21 33.86 21 41 21 C41 27.6 41 34.2 41 41 C34.07 41 27.14 41 20 41 C20 47.93 20 54.86 20 62 C13.4 62 6.8 62 0 62 C0 55.07 0 48.14 0 41 C-6.93 41 -13.86 41 -21 41 C-21 34.4 -21 27.8 -21 21 C-14.07 21 -7.14 21 0 21 C0 14.07 0 7.14 0 0 Z " fill="#41C0C9" transform="translate(240,219)"/>
<path d="M0 0 C2.375 0.625 2.375 0.625 5 2 C7.17921866 6.82961973 7.24673624 11.19652771 7.125 16.375 C7.11597656 17.11105469 7.10695313 17.84710938 7.09765625 18.60546875 C7.07430144 20.4037888 7.03843836 22.20193911 7 24 C7.66 24 8.32 24 9 24 C9.226875 23.175 9.45375 22.35 9.6875 21.5 C11.27426232 17.26863382 13.50748237 13.74828987 16 10 C18.16874252 10.50603992 19.99967627 10.99983813 22 12 C21.33464749 15.52457007 19.89426417 18.13773361 18.05859375 21.203125 C17.47529297 22.1828125 16.89199219 23.1625 16.29101562 24.171875 C15.67935547 25.18765625 15.06769531 26.2034375 14.4375 27.25 C13.82197266 28.28125 13.20644531 29.3125 12.57226562 30.375 C11.05268634 32.91941182 9.52845803 35.46091526 8 38 C3.125 36.125 3.125 36.125 2 35 C1.78779678 32.39166878 1.62343661 29.80024168 1.5 27.1875 C1.29862784 22.99224665 1.02532864 19.10131456 0 15 C-2.64 19.29 -5.28 23.58 -8 28 C-9.98 27.34 -11.96 26.68 -14 26 C-12.3306819 21.38004936 -9.98972955 17.25059261 -7.5625 13 C-7.16740234 12.30132812 -6.77230469 11.60265625 -6.36523438 10.8828125 C-4.29148445 7.22528352 -2.18297326 3.5938338 0 0 Z " fill="#F4F8FA" transform="translate(312,120)"/>
<path d="M0 0 C3.08416293 2.05610862 4.68386831 3.45571068 5.44140625 7.15625 C5.72012199 12.55074821 4.6154064 14.91808955 1 19 C1.10247273 22.38159998 2.90053488 24.44412942 5 27 C4.01 28.32 3.02 29.64 2 31 C-2.57924236 29.5632102 -5.54940425 26.95412752 -8.9375 23.6875 C-9.94531526 22.73170101 -10.95442836 21.77726862 -11.96484375 20.82421875 C-12.45839355 20.35806152 -12.95194336 19.8919043 -13.46044922 19.41162109 C-15.89645405 17.17803721 -18.44238145 15.092597 -21 13 C-19.58378621 9.87311213 -17.87668024 7.46099085 -15.625 4.875 C-15.03976563 4.19179687 -14.45453125 3.50859375 -13.8515625 2.8046875 C-9.62865317 -1.31131274 -5.60035062 -1.67456029 0 0 Z " fill="#F4F8FA" transform="translate(155,151)"/>
<path d="M0 0 C2.48224301 1.36593105 4.6234313 2.81238993 6.84033203 4.57421875 C7.62279297 5.19039062 8.40525391 5.8065625 9.21142578 6.44140625 C10.01451172 7.08335937 10.81759766 7.7253125 11.64501953 8.38671875 C13.25115789 9.65835134 14.85790352 10.92921738 16.46533203 12.19921875 C17.17189941 12.76253906 17.8784668 13.32585937 18.60644531 13.90625 C20.19392955 15.13443377 21.84999249 16.27336739 23.52001953 17.38671875 C23.52001953 18.04671875 23.52001953 18.70671875 23.52001953 19.38671875 C20.52001953 21.38671875 20.52001953 21.38671875 18.46923828 21.22265625 C17.72287109 21.07054687 16.97650391 20.9184375 16.20751953 20.76171875 C12.59984565 20.27991214 11.58265322 20.35938768 8.08251953 21.88671875 C4.99265493 24.9012208 4.65628864 27.29614996 3.52001953 31.38671875 C0.96142578 32.59765625 0.96142578 32.59765625 -1.47998047 33.38671875 C-2.13339055 30.09651064 -2.77626568 26.80432342 -3.41748047 23.51171875 C-3.59988281 22.59390625 -3.78228516 21.67609375 -3.97021484 20.73046875 C-4.50789986 17.95405884 -5.00586322 15.1746652 -5.47998047 12.38671875 C-5.64256348 11.45569336 -5.80514648 10.52466797 -5.97265625 9.56542969 C-6.1001123 8.67887695 -6.22756836 7.79232422 -6.35888672 6.87890625 C-6.47949463 6.08597168 -6.60010254 5.29303711 -6.72436523 4.47607422 C-6.47998047 2.38671875 -6.47998047 2.38671875 -4.80004883 0.48095703 C-2.47998047 -0.61328125 -2.47998047 -0.61328125 0 0 Z " fill="#F6F9FA" transform="translate(178.47998046875,125.61328125)"/>
<path d="M0 0 C3.09610007 1.30724225 4.66294032 2.61799902 6.875 5.125 C8.50830999 9.29901442 8.23988756 12.72238791 7 17 C4.94446962 20.08329556 3.41950998 21.50290568 -0.0859375 22.73046875 C-3.59723545 23.43152994 -5.94432508 23.61221297 -9.1015625 21.78125 C-12.14213057 19.22867433 -14.63215914 17.09000491 -15.34375 13.046875 C-15.57965987 9.57899995 -15.68892556 7.03548872 -13.71875 4.07421875 C-9.29978917 -0.13383714 -5.9695358 -0.86654552 0 0 Z " fill="#F3F7F9" transform="translate(158,326)"/>
<path d="M0 0 C6.08233706 0.67581523 12.01314152 1.73638028 18 3 C19.125 6.75 19.125 6.75 18 9 C16.58297487 8.85769192 15.1663904 8.71099254 13.75 8.5625 C12.56664062 8.44068359 12.56664062 8.44068359 11.359375 8.31640625 C9.17635361 8.02365007 7.1226818 7.57935581 5 7 C4.67 8.98 4.34 10.96 4 13 C5.258125 13.144375 6.51625 13.28875 7.8125 13.4375 C10.42667123 13.73748686 12.47439892 14.15813297 15 15 C14.67 16.65 14.34 18.3 14 20 C5.42857143 19 5.42857143 19 2 18 C2 19.98 2 21.96 2 24 C5.96 24.99 9.92 25.98 14 27 C13.67 28.65 13.34 30.3 13 32 C6.23784552 31.59060025 0.32837252 30.43046191 -6 28 C-5.35227461 22.10300014 -4.31464049 16.4075129 -3 10.625 C-2.82210938 9.81933594 -2.64421875 9.01367188 -2.4609375 8.18359375 C-1.13245631 2.26491261 -1.13245631 2.26491261 0 0 Z " fill="#F3F7F9" transform="translate(274,108)"/>
<path d="M0 0 C2.09622164 3.95121142 3.03979657 7.92549274 2.875 12.375 C1.93559193 15.19322422 1.33494946 16.2227282 -1 18 C-3.3046875 18.15234375 -3.3046875 18.15234375 -5.875 17.9375 C-9.7495854 17.79588504 -10.72477285 17.82385463 -14.125 20 C-15.053125 20.99 -15.053125 20.99 -16 22 C-16.66 20.35 -17.32 18.7 -18 17 C-17.360625 16.4225 -16.72125 15.845 -16.0625 15.25 C-14.01776132 13.01937599 -13.41794801 11.92563609 -13 9 C-15.31 9.33 -17.62 9.66 -20 10 C-20.33 8.35 -20.66 6.7 -21 5 C-18.06746654 3.96448955 -15.12833062 2.94918162 -12.1875 1.9375 C-11.35412109 1.64294922 -10.52074219 1.34839844 -9.66210938 1.04492188 C-8.45844727 0.6340332 -8.45844727 0.6340332 -7.23046875 0.21484375 C-6.49207764 -0.04176025 -5.75368652 -0.29836426 -4.99291992 -0.56274414 C-3 -1 -3 -1 0 0 Z " fill="#EEF4F7" transform="translate(136,281)"/>
<path d="M0 0 C3.98661198 1.5402819 5.9009683 4.05500402 8.5 7.375 C10.67738591 10.14147319 12.7594301 12.76843102 15.296875 15.2109375 C15.85890625 15.80132812 16.4209375 16.39171875 17 17 C16.75 19.25 16.75 19.25 16 21 C14.375 21.8125 14.375 21.8125 12 22 C9.75390165 20.53181864 7.97621323 18.84147142 6 17 C5.27554687 17.67546875 4.55109375 18.3509375 3.8046875 19.046875 C2.83789062 19.93890625 1.87109375 20.8309375 0.875 21.75 C-0.07632812 22.63171875 -1.02765625 23.5134375 -2.0078125 24.421875 C-4.91029774 26.92271085 -7.77508474 28.95213096 -11 31 C-12.37562854 29.71034824 -13.70766393 28.37310707 -15 27 C-15 26.34 -15 25.68 -15 25 C-13.30096977 23.48259024 -11.53927277 22.034872 -9.75 20.625 C-6.94686688 18.40770687 -4.26298803 16.2694248 -1.765625 13.7109375 C0 12 0 12 2 12 C0.35 9.69 -1.3 7.38 -3 5 C-1.125 1.125 -1.125 1.125 0 0 Z " fill="#F4F8FA" transform="translate(349,146)"/>
<path d="M0 0 C0.33 1.98 0.66 3.96 1 6 C-1.97 6.66 -4.94 7.32 -8 8 C-7.70351562 8.67933594 -7.40703125 9.35867187 -7.1015625 10.05859375 C-5.86396684 13.36323747 -5.1059312 16.61088046 -4.375 20.0625 C-3.98441406 21.87427734 -3.98441406 21.87427734 -3.5859375 23.72265625 C-3 27 -3 27 -3 31 C-4.98 31.33 -6.96 31.66 -9 32 C-10.29844768 27.60525401 -11.48819241 23.18947607 -12.625 18.75 C-12.88539063 17.73421875 -13.14578125 16.7184375 -13.4140625 15.671875 C-14 13 -14 13 -14 10 C-17.3 10.66 -20.6 11.32 -24 12 C-24.33 10.02 -24.66 8.04 -25 6 C-5.89320388 0 -5.89320388 0 0 0 Z " fill="#F3F7F9" transform="translate(228,107)"/>
<path d="M0 0 C3.9295493 0.92685276 5.41241975 2.29808529 8.00390625 5.47265625 C8.80273521 8.65073116 8.75254633 11.28805653 8.00390625 14.47265625 C6.06640625 17.53515625 6.06640625 17.53515625 3.00390625 19.47265625 C-1.74667698 20.51211479 -4.93750882 20.14237325 -9.05859375 17.53515625 C-11.66285898 13.41873702 -12.04313378 10.21866555 -10.99609375 5.47265625 C-8.10250338 1.041846 -5.38309693 -0.3983696 0 0 Z " fill="#3FBDC7" transform="translate(375.99609375,201.52734375)"/>
<path d="M0 0 C4.6 2.2 4.6 2.2 6 5 C6.6469176 9.7040151 6.63833677 12.99101607 4.0625 17.0625 C0.50994766 19.31003311 -1.6918136 19.7961723 -5.83984375 19.546875 C-8 19 -8 19 -11.0625 16.4375 C-13.30625709 12.45664064 -13.73540053 10.49411434 -13 6 C-9.27625236 0.29025362 -6.72149163 -0.45569435 0 0 Z " fill="#3FBEC7" transform="translate(123,202)"/>
<path d="M0 0 C7.47093223 -0.29883729 14.63044989 0.84074493 22 2 C22 3.65 22 5.3 22 7 C15.07 10.465 15.07 10.465 8 14 C13.94 14.99 13.94 14.99 20 16 C19.67 17.65 19.34 19.3 19 21 C11.94110263 20.29411026 4.98795036 19.21786614 -2 18 C-1.84765625 15.70703125 -1.84765625 15.70703125 -1 13 C1.50390625 11.19921875 1.50390625 11.19921875 4.5625 9.6875 C5.57441406 9.17574219 6.58632813 8.66398437 7.62890625 8.13671875 C8.41136719 7.76160156 9.19382812 7.38648438 10 7 C5.545 6.01 5.545 6.01 1 5 C0.67 3.35 0.34 1.7 0 0 Z " fill="#F1F5F8" transform="translate(368,259)"/>
<path d="M0 0 C1.953125 0.5546875 1.953125 0.5546875 4 2 C4.609375 5.2578125 4.609375 5.2578125 4.75 9.125 C4.80671875 10.40632813 4.8634375 11.68765625 4.921875 13.0078125 C4.94765625 13.99523437 4.9734375 14.98265625 5 16 C6.98 13.36 8.96 10.72 11 8 C12.32 8.33 13.64 8.66 15 9 C14.39098881 12.01883061 13.44445623 14.13219085 11.71484375 16.671875 C11.04291992 17.66767578 11.04291992 17.66767578 10.35742188 18.68359375 C9.88884766 19.36550781 9.42027344 20.04742187 8.9375 20.75 C8.46505859 21.44738281 7.99261719 22.14476562 7.50585938 22.86328125 C6.34242719 24.57904993 5.17190026 26.29000398 4 28 C2.68 27.34 1.36 26.68 0 26 C0 20.72 0 15.44 0 10 C-0.66 10 -1.32 10 -2 10 C-2.268125 10.721875 -2.53625 11.44375 -2.8125 12.1875 C-3.98982498 14.97590126 -5.39145884 17.44095724 -7 20 C-9.475 19.01 -9.475 19.01 -12 18 C-8.63038019 11.43157061 -4.67946944 5.70436765 0 0 Z " fill="#F4F8FA" transform="translate(175,343)"/>
<path d="M0 0 C7.26 0.33 14.52 0.66 22 1 C22 12 22 12 19.875 15.6875 C17 18 17 18 14 18.6875 C9.88775154 17.74510973 8.43415273 16.43645091 6 13 C5.59002212 10.19242993 5.75762154 7.86006586 6 5 C4.02 5 2.04 5 0 5 C0 3.35 0 1.7 0 0 Z " fill="#F1F6F8" transform="translate(110,234)"/>
<path d="M0 0 C2.475 0.495 2.475 0.495 5 1 C5 8.92 5 16.84 5 25 C3.35 24.34 1.7 23.68 0 23 C0 21.68 0 20.36 0 19 C-4.455 18.01 -4.455 18.01 -9 17 C-9.33 17.66 -9.66 18.32 -10 19 C-12.475 18.01 -12.475 18.01 -15 17 C-12.60948593 12.56518424 -9.62184696 9.19058105 -6.125 5.625 C-5.60808594 5.06683594 -5.09117187 4.50867188 -4.55859375 3.93359375 C-3.0078125 2.3515625 -3.0078125 2.3515625 0 0 Z " fill="#F0F5F8" transform="translate(203,359)"/>
<path d="M0 0 C1.98 0 3.96 0 6 0 C7.67333158 3.12147545 9.33751716 6.24773498 11 9.375 C11.47695313 10.26445312 11.95390625 11.15390625 12.4453125 12.0703125 C12.89648438 12.92109375 13.34765625 13.771875 13.8125 14.6484375 C14.23144531 15.43395996 14.65039062 16.21948242 15.08203125 17.02880859 C16 19 16 19 16 21 C14.35 21 12.7 21 11 21 C10.67 20.01 10.34 19.02 10 18 C6.7 18 3.4 18 0 18 C-0.33 19.32 -0.66 20.64 -1 22 C-2.32 22 -3.64 22 -5 22 C-4.47458553 14.2501365 -2.44408524 7.3549914 0 0 Z " fill="#F0F5F8" transform="translate(259,368)"/>
<path d="M0 0 C7.92 0 15.84 0 24 0 C23.34 1.65 22.68 3.3 22 5 C20.66666667 5.33333333 19.33333333 5.66666667 18 6 C15.22940787 10.35378764 16.17964488 14.15990481 17 19 C13 19 13 19 10.30859375 16.6640625 C9.34124665 15.66088773 8.38450118 14.64740344 7.4375 13.625 C4.75144615 10.79151883 2.27327541 8.18218361 -1 6 C-0.67 4.02 -0.34 2.04 0 0 Z " fill="#F2F6F9" transform="translate(361,290)"/>
<path d="M0 0 C1.4540625 0.0309375 1.4540625 0.0309375 2.9375 0.0625 C2.9375 1.3825 2.9375 2.7025 2.9375 4.0625 C-0.5275 5.5475 -0.5275 5.5475 -4.0625 7.0625 C-4.0625 7.7225 -4.0625 8.3825 -4.0625 9.0625 C-1.49896623 8.63524437 0.63094896 8.22535524 2.9375 7 C5.47765544 5.80930214 7.1621258 5.7066828 9.9375 6.0625 C11.75 7.125 11.75 7.125 12.9375 9.0625 C13.5625 12.375 13.5625 12.375 12.9375 16.0625 C10.25410139 19.50506741 7.4280407 21.76439186 3.125 22.625 C0.9375 22.0625 0.9375 22.0625 -1.0625 19.0625 C1.29718744 16.96500005 2.48366994 16.09344296 5.6875 15.875 C6.43 15.936875 7.1725 15.99875 7.9375 16.0625 C7.9375 14.7425 7.9375 13.4225 7.9375 12.0625 C5.37396623 12.48975563 3.24405104 12.89964476 0.9375 14.125 C-1.60265544 15.31569786 -3.2871258 15.4183172 -6.0625 15.0625 C-7.875 13.9375 -7.875 13.9375 -9.0625 12.0625 C-9.5625 9.1875 -9.5625 9.1875 -9.0625 6.0625 C-6.625 3.25 -6.625 3.25 -4.0625 1.0625 C-3.0625 0.0625 -3.0625 0.0625 0 0 Z " fill="#EEF4F7" transform="translate(341.0625,328.9375)"/>
<path d="M0 0 C2.375 2 2.375 2 4 4 C3.34 4.66 2.68 5.32 2 6 C-0.1640625 5.9765625 -0.1640625 5.9765625 -2.625 5.625 C-3.44226563 5.51414062 -4.25953125 5.40328125 -5.1015625 5.2890625 C-6.04128906 5.14597656 -6.04128906 5.14597656 -7 5 C-7 6.32 -7 7.64 -7 9 C-6.24074219 8.96519531 -5.48148437 8.93039062 -4.69921875 8.89453125 C-3.20841797 8.85392578 -3.20841797 8.85392578 -1.6875 8.8125 C-0.20830078 8.76029297 -0.20830078 8.76029297 1.30078125 8.70703125 C4 9 4 9 5.828125 10.29296875 C7.81052556 13.18066557 7.42142513 15.62859899 7 19 C4.79373193 21.75783508 2.35627019 22.27387698 -1 22.875 C-3.88263165 23.14390221 -4.83328225 23.08335888 -7.5 21.75 C-9 20 -9 20 -9 17 C-5.7 17 -2.4 17 1 17 C1 16.01 1 15.02 1 14 C0.31292969 13.96261719 -0.37414062 13.92523438 -1.08203125 13.88671875 C-1.98308594 13.82097656 -2.88414062 13.75523437 -3.8125 13.6875 C-5.15248047 13.60048828 -5.15248047 13.60048828 -6.51953125 13.51171875 C-9.35166741 12.92745129 -10.29935854 12.30409488 -12 10 C-12.5625 7.0625 -12.5625 7.0625 -12 4 C-8.18484095 0.54818943 -5.12975111 -0.89213063 0 0 Z " fill="#EEF4F7" transform="translate(291,362)"/>
<path d="M0 0 C3.79856107 1.34532371 5.02130845 2.56173803 7 6.0625 C7.25 9.875 7.25 9.875 7 13.0625 C5.02 14.0525 5.02 14.0525 3 15.0625 C2.22678118 12.08008453 1.58803797 9.08669525 1 6.0625 C0.01 5.7325 -0.98 5.4025 -2 5.0625 C-1.88140625 5.95453125 -1.7628125 6.8465625 -1.640625 7.765625 C-1.51171875 8.93609375 -1.3828125 10.1065625 -1.25 11.3125 C-1.11078125 12.47265625 -0.9715625 13.6328125 -0.828125 14.828125 C-1 18.0625 -1 18.0625 -2.796875 20.4765625 C-5 22.0625 -5 22.0625 -8 22.1875 C-12.08724078 20.65478471 -13.12198961 18.96298313 -15 15.0625 C-15.25 11.1875 -15.25 11.1875 -15 8.0625 C-13.68 7.4025 -12.36 6.7425 -11 6.0625 C-10.33333333 9.39583333 -9.66666667 12.72916667 -9 16.0625 C-8.01 16.3925 -7.02 16.7225 -6 17.0625 C-6.11859375 16.17046875 -6.2371875 15.2784375 -6.359375 14.359375 C-6.48828125 13.18890625 -6.6171875 12.0184375 -6.75 10.8125 C-6.88921875 9.65234375 -7.0284375 8.4921875 -7.171875 7.296875 C-7 4.0625 -7 4.0625 -5.203125 1.64453125 C-3 0.0625 -3 0.0625 0 0 Z " fill="#EDF3F7" transform="translate(142,303.9375)"/>
<path d="M0 0 C0.66 1.32 1.32 2.64 2 4 C-1.40562852 4.77842938 -4.50765756 5.09978121 -8 5 C-8 6.32 -8 7.64 -8 9 C-7.319375 8.835 -6.63875 8.67 -5.9375 8.5 C2.48333333 7.06666667 2.48333333 7.06666667 6.4375 9.5 C6.953125 9.995 7.46875 10.49 8 11 C7.875 14.25 7.875 14.25 7 18 C3.92075332 20.79280513 1.94513143 21.88880807 -2.1875 22.375 C-5 22 -5 22 -8 20 C-7.67 19.01 -7.34 18.02 -7 17 C-4.36 17 -1.72 17 1 17 C1.66 15.68 2.32 14.36 3 13 C2.18015625 13.11859375 1.3603125 13.2371875 0.515625 13.359375 C-0.56203125 13.48828125 -1.6396875 13.6171875 -2.75 13.75 C-3.81734375 13.88921875 -4.8846875 14.0284375 -5.984375 14.171875 C-9 14 -9 14 -11.3515625 12.16796875 C-13 10 -13 10 -13.625 7.5625 C-12.85436565 4.40289916 -11.36255393 2.8939851 -8.80078125 0.9375 C-5.88103504 -0.58254141 -3.19854371 -0.31985437 0 0 Z " fill="#F0F5F8" transform="translate(314,353)"/>
<path d="M0 0 C0.495 6.93 0.495 6.93 1 14 C-0.32 14 -1.64 14 -3 14 C-3.33 11.03 -3.66 8.06 -4 5 C-5.32 5 -6.64 5 -8 5 C-8 7.97 -8 10.94 -8 14 C-9.32 14 -10.64 14 -12 14 C-12 11.36 -12 8.72 -12 6 C-13.65 6 -15.3 6 -17 6 C-16.835 6.515625 -16.67 7.03125 -16.5 7.5625 C-15.84951 10.73363876 -15.9379266 13.77218334 -16 17 C-17.32 17 -18.64 17 -20 17 C-20.33951619 15.43883181 -20.67132544 13.87598662 -21 12.3125 C-21.185625 11.44238281 -21.37125 10.57226562 -21.5625 9.67578125 C-21.98972047 7.06287036 -22.07616201 4.64186962 -22 2 C-19.45887768 1.66198848 -16.91723254 1.32946621 -14.375 1 C-13.66214844 0.90460938 -12.94929688 0.80921875 -12.21484375 0.7109375 C-11.51230469 0.62070312 -10.80976562 0.53046875 -10.0859375 0.4375 C-9.4470459 0.35371094 -8.8081543 0.26992188 -8.14990234 0.18359375 C-5.44243323 -0.04761415 -2.71732333 0 0 0 Z " fill="#F1F6F8" transform="translate(132,259)"/>
<path d="M0 0 C1.32 0 2.64 0 4 0 C4 2.31 4 4.62 4 7 C5.11375 6.835 6.2275 6.67 7.375 6.5 C12.25510338 5.87905495 17.08861948 5.90942126 22 6 C22 7.65 22 9.3 22 11 C16.29309366 11.99250545 10.78591511 12.10477512 5 12 C5 14.31 5 16.62 5 19 C3.35 19 1.7 19 0 19 C0 12.73 0 6.46 0 0 Z " fill="#EDF3F6" transform="translate(368,233)"/>
<path d="M0 0 C1.98 0 3.96 0 6 0 C6 9.57 6 19.14 6 29 C4.02 29 2.04 29 0 29 C0 19.43 0 9.86 0 0 Z " fill="#FFFFFF" transform="translate(247,106)"/>
<path d="M0 0 C1.32 0.33 2.64 0.66 4 1 C3.34 3.31 2.68 5.62 2 8 C8.435 11.96 8.435 11.96 15 16 C14.01 18.475 14.01 18.475 13 21 C9.37723685 19.6744419 6.36494652 18.05653045 3.1875 15.875 C2.39730469 15.33617187 1.60710937 14.79734375 0.79296875 14.2421875 C0.20128906 13.83226562 -0.39039063 13.42234375 -1 13 C-1.86625 14.0209375 -1.86625 14.0209375 -2.75 15.0625 C-3.86375 16.0215625 -3.86375 16.0215625 -5 17 C-7.25 16.75 -7.25 16.75 -9 16 C-8.37695259 11.92546771 -6.23467379 9.10460299 -3.9375 5.75 C-3.20402344 4.67234375 -2.47054688 3.5946875 -1.71484375 2.484375 C-1.14894531 1.66453125 -0.58304687 0.8446875 0 0 Z " fill="#F1F6F8" transform="translate(354,307)"/>
<path d="M0 0 C1.65 0 3.3 0 5 0 C4.42085333 6.01326751 3.77662055 12.00892722 3 18 C5.31 18.33 7.62 18.66 10 19 C10.33 20.65 10.66 22.3 11 24 C9.60386935 23.85704109 8.20810692 23.71048442 6.8125 23.5625 C6.03519531 23.48128906 5.25789062 23.40007812 4.45703125 23.31640625 C1.93998004 22.99227088 -0.5177143 22.52467495 -3 22 C-2.51172287 14.52165033 -1.66594452 7.31074682 0 0 Z " fill="#ECF2F6" transform="translate(221,365)"/>
<path d="M0 0 C2.37466282 2.06825471 2.88685647 3.43428235 3.5 6.5 C3 9 3 9 0.875 11.375 C-2 13 -2 13 -5.1875 12.9375 C-8 12 -8 12 -10 9 C-10.32162076 5.9124407 -10.48724515 3.85984439 -8.9375 1.125 C-5.85928089 -0.66235303 -3.47093932 -0.43386742 0 0 Z " fill="#106191" transform="translate(158,331)"/>
<path d="M0 0 C3.36698436 3.15654784 6.40185916 6.53124325 9.375 10.0625 C10.08398438 10.89910156 10.79296875 11.73570312 11.5234375 12.59765625 C13 15 13 15 12.9140625 17.24609375 C12 19 12 19 9 20 C6 16 3 12 0 8 C-0.61230469 7.27296875 -1.22460938 6.5459375 -1.85546875 5.796875 C-2.23316406 5.20390625 -2.61085938 4.6109375 -3 4 C-2.67 3.01 -2.34 2.02 -2 1 C-1.34 0.67 -0.68 0.34 0 0 Z " fill="#F1F6F8" transform="translate(323,343)"/>
<path d="M0 0 C2.5 0.25 2.5 0.25 4.5 2.25 C4.9375 4.625 4.9375 4.625 4.5 7.25 C2 9.5625 2 9.5625 -0.5 11.25 C-2.48 9.6 -4.46 7.95 -6.5 6.25 C-3.75874126 0.37587413 -3.75874126 0.37587413 0 0 Z " fill="#126293" transform="translate(149.5,156.75)"/>
<path d="M0 0 C6.42857143 4.14285714 6.42857143 4.14285714 9 7 C6.69 8.32 4.38 9.64 2 11 C0 3.375 0 3.375 0 0 Z " fill="#216C99" transform="translate(179,134)"/>
<path d="M0 0 C2.31 0 4.62 0 7 0 C7 1.98 7 3.96 7 6 C4.625 6.625 4.625 6.625 2 7 C0 5 0 5 -0.125 2.375 C-0.08375 1.59125 -0.0425 0.8075 0 0 Z " fill="#1D6997" transform="translate(120,240)"/>
<path d="M0 0 C0.33 2.31 0.66 4.62 1 7 C-0.65 7.33 -2.3 7.66 -4 8 C-6 5 -6 5 -5.8125 2.875 C-5.544375 2.25625 -5.27625 1.6375 -5 1 C-2 0 -2 0 0 0 Z " fill="#176594" transform="translate(133,286)"/>
<path d="M0 0 C-0.33 1.32 -0.66 2.64 -1 4 C-3.31 4.33 -5.62 4.66 -8 5 C-6.19780722 -0.02039417 -5.34443412 -1.60333024 0 0 Z " fill="#1C6997" transform="translate(350,341)"/>
<path d="M0 0 C2.50037734 2.17424117 3.43628586 3.73045798 4 7 C2.35 7 0.7 7 -1 7 C-0.67 4.69 -0.34 2.38 0 0 Z " fill="#1F6A98" transform="translate(262,375)"/>
<path d="M0 0 C2.31 0 4.62 0 7 0 C6.67 1.65 6.34 3.3 6 5 C2.83884224 3.63016497 2.0072908 3.0109362 0 0 Z " fill="#1E6A98" transform="translate(367,295)"/>
<path d="M0 0 C0.33 0 0.66 0 1 0 C1 2.31 1 4.62 1 7 C-1.475 6.01 -1.475 6.01 -4 5 C-2.69254251 3.31295807 -1.35827971 1.64639965 0 0 Z " fill="#156494" transform="translate(202,367)"/>
</svg>
